<svg width="52" height="21" viewBox="0 0 52 21" fill="none" xmlns="http://www.w3.org/2000/svg">
<path fill-rule="evenodd" clip-rule="evenodd" d="M1.04763 4.1508C0.382688 4.72075 0 5.5528 0 6.42857V17.0488C0 18.7056 1.34315 20.0488 3 20.0488H11C12.6569 20.0488 14 18.7056 14 17.0488V6.42857C14 5.5528 13.6173 4.72075 12.9524 4.1508L8.95237 0.72223C7.82891 -0.240743 6.1711 -0.240744 5.04763 0.72223L1.04763 4.1508ZM7.10318 13.6092L6.67568 16.0488H8.64706L9.07801 13.6092H10.5548V11.9659H9.36829L9.54915 10.942H11V9.31141H9.8372L10.2369 7.04877H8.25278L7.85629 9.31141H6.842L7.23529 7.04877H5.27663L4.87694 9.31141H3.45787V10.942H4.5889L4.40803 11.9659H3V13.6092H4.11775L3.6868 16.0488H5.67091L6.09496 13.6092H7.10318ZM7.39113 11.9659L7.57055 10.942H6.55856L6.38059 11.9659H7.39113Z" fill="white"/>
<path d="M35.6983 15.4424C35.1143 15.4424 34.5943 15.3344 34.1383 15.1184C33.6903 14.9024 33.3303 14.5984 33.0583 14.2064L33.7543 13.4984C33.9863 13.7944 34.2623 14.0184 34.5823 14.1704C34.9023 14.3304 35.2823 14.4104 35.7223 14.4104C36.3063 14.4104 36.7663 14.2544 37.1023 13.9424C37.4463 13.6384 37.6183 13.2264 37.6183 12.7064V11.2904L37.8103 10.0064L37.6183 8.73438V7.23438H38.6983V12.7064C38.6983 13.2504 38.5703 13.7264 38.3143 14.1344C38.0663 14.5424 37.7143 14.8624 37.2583 15.0944C36.8103 15.3264 36.2903 15.4424 35.6983 15.4424ZM35.6983 12.8384C35.1783 12.8384 34.7103 12.7144 34.2943 12.4664C33.8863 12.2184 33.5623 11.8784 33.3223 11.4464C33.0823 11.0064 32.9623 10.5144 32.9623 9.97038C32.9623 9.42638 33.0823 8.94238 33.3223 8.51838C33.5623 8.08638 33.8863 7.74638 34.2943 7.49838C34.7103 7.24238 35.1783 7.11438 35.6983 7.11438C36.1463 7.11438 36.5423 7.20238 36.8863 7.37838C37.2303 7.55438 37.5023 7.80238 37.7023 8.12238C37.9103 8.43438 38.0223 8.80238 38.0383 9.22638V10.7384C38.0143 11.1544 37.8983 11.5224 37.6903 11.8424C37.4903 12.1544 37.2183 12.3984 36.8743 12.5744C36.5303 12.7504 36.1383 12.8384 35.6983 12.8384ZM35.9143 11.8184C36.2663 11.8184 36.5743 11.7424 36.8383 11.5904C37.1103 11.4384 37.3183 11.2264 37.4623 10.9544C37.6063 10.6744 37.6783 10.3504 37.6783 9.98238C37.6783 9.61438 37.6023 9.29438 37.4503 9.02238C37.3063 8.74238 37.1023 8.52638 36.8383 8.37438C36.5743 8.21438 36.2623 8.13438 35.9023 8.13438C35.5423 8.13438 35.2263 8.21438 34.9543 8.37438C34.6823 8.52638 34.4663 8.74238 34.3063 9.02238C34.1543 9.29438 34.0783 9.61038 34.0783 9.97038C34.0783 10.3304 34.1543 10.6504 34.3063 10.9304C34.4663 11.2104 34.6823 11.4304 34.9543 11.5904C35.2343 11.7424 35.5543 11.8184 35.9143 11.8184Z" fill="white"/>
<path d="M28.774 13.0544C28.254 13.0544 27.782 12.9264 27.358 12.6704C26.934 12.4064 26.598 12.0504 26.35 11.6024C26.11 11.1544 25.99 10.6504 25.99 10.0904C25.99 9.53038 26.11 9.02638 26.35 8.57838C26.598 8.13038 26.93 7.77438 27.346 7.51038C27.77 7.24638 28.246 7.11438 28.774 7.11438C29.206 7.11438 29.59 7.20638 29.926 7.39038C30.27 7.56638 30.546 7.81438 30.754 8.13438C30.962 8.44638 31.078 8.81038 31.102 9.22638V10.9424C31.078 11.3504 30.962 11.7144 30.754 12.0344C30.554 12.3544 30.282 12.6064 29.938 12.7904C29.602 12.9664 29.214 13.0544 28.774 13.0544ZM28.954 12.0344C29.49 12.0344 29.922 11.8544 30.25 11.4944C30.578 11.1264 30.742 10.6584 30.742 10.0904C30.742 9.69838 30.666 9.35838 30.514 9.07038C30.37 8.77438 30.162 8.54638 29.89 8.38638C29.618 8.21838 29.302 8.13438 28.942 8.13438C28.582 8.13438 28.262 8.21838 27.982 8.38638C27.71 8.55438 27.494 8.78638 27.334 9.08238C27.182 9.37038 27.106 9.70238 27.106 10.0784C27.106 10.4624 27.182 10.8024 27.334 11.0984C27.494 11.3864 27.714 11.6144 27.994 11.7824C28.274 11.9504 28.594 12.0344 28.954 12.0344ZM30.67 12.9344V11.3984L30.874 10.0064L30.67 8.62638V7.23438H31.762V12.9344H30.67Z" fill="white"/>
<path d="M22.832 12.9344V4.84638H23.96V12.9344H22.832ZM20 5.63838V4.60638H26.78V5.63838H20Z" fill="white"/>
<path d="M40.6983 12.9964V4.45239H43.0983V12.9964H40.6983Z" fill="white"/>
<path d="M46.6543 12.9964V4.45239H49.0543V12.9964H46.6543ZM44.0983 6.49239V4.45239H51.6223V6.49239H44.0983Z" fill="white"/>
</svg>
